<?xml version="1.0" encoding="iso-8859-1"?>

<!DOCTYPE svg PUBLIC "-//W3C//DTD SVG 1.1//EN" "http://www.w3.org/Graphics/SVG/1.1/DTD/svg11.dtd">
<svg version="1.1" xmlns="http://www.w3.org/2000/svg" xmlns:xlink="http://www.w3.org/1999/xlink" x="0px" y="0px"
	 viewBox="0 0 512 512" style="enable-background:new 0 0 512 512;" xml:space="preserve">
<g id="chick">
	<rect x="332.8" y="153.6" width="25.6" height="25.6"/>
	<polygon style="fill:#D68400;" points="435,179 435,154 410,154 410,179.2 410,204.8 410,230 435,230 435,205 461,205 461,179 	"/>
	<g>
		<polygon style="fill:#964B00;" points="154,435.2 154,461 179,461 179,435.2 179,410 154,410 		"/>
		<polygon style="fill:#964B00;" points="230,410 230,435.2 230,461 256,461 256,435.2 256,410 		"/>
	</g>
	<path style="fill:#FEE257;" d="M384,128v-26h-25.6h-25.6h-25.6h-25.6H256v26h-26v26h-25v25.2V205h-25.8h-25.6H128h-26v25H77v26H51
		v25.6v25.6v25.6V358h26v26h25v26h26h25.6h25.6h25.6h25.6H256h26v-26h25.2H333v-26h25v-25.2v-25.6V282h26v-26h26v-25.6v-25.6v-25.6
		v-25.6V128H384z M358,179h-25v-25h25V179z"/>
	<g>
		<rect x="-955" y="0" style="fill:#F2F2F2;" width="25.6" height="25.6"/>
		<rect x="-929.4" y="0" style="fill:#E6E6E6;" width="25.6" height="25.6"/>
		<rect x="-903.8" y="0" style="fill:#F2F2F2;" width="25.6" height="25.6"/>
		<rect x="-878.2" y="0" style="fill:#E6E6E6;" width="25.6" height="25.6"/>
		<rect x="-852.6" y="0" style="fill:#F2F2F2;" width="25.6" height="25.6"/>
		<rect x="-827" y="0" style="fill:#E6E6E6;" width="25.6" height="25.6"/>
		<rect x="-801.4" y="0" style="fill:#F2F2F2;" width="25.6" height="25.6"/>
		<rect x="-775.8" y="0" style="fill:#E6E6E6;" width="25.6" height="25.6"/>
		<rect x="-750.2" y="0" style="fill:#F2F2F2;" width="25.6" height="25.6"/>
		<rect x="-724.6" y="0" style="fill:#E6E6E6;" width="25.6" height="25.6"/>
		<rect x="-699" y="0" style="fill:#F2F2F2;" width="25.6" height="25.6"/>
		<rect x="-673.4" y="0" style="fill:#E6E6E6;" width="25.6" height="25.6"/>
		<rect x="-647.8" y="0" style="fill:#F2F2F2;" width="25.6" height="25.6"/>
		<rect x="-622.2" y="0" style="fill:#E6E6E6;" width="25.6" height="25.6"/>
		<rect x="-596.6" y="0" style="fill:#F2F2F2;" width="25.6" height="25.6"/>
		<rect x="-571" y="0" style="fill:#E6E6E6;" width="25.6" height="25.6"/>
		<rect x="-545.4" y="0" style="fill:#F2F2F2;" width="25.6" height="25.6"/>
		<rect x="-519.8" y="0" style="fill:#E6E6E6;" width="25.6" height="25.6"/>
		<rect x="-494.2" y="0" style="fill:#F2F2F2;" width="25.6" height="25.6"/>
		<rect x="-468.6" y="0" style="fill:#E6E6E6;" width="25.6" height="25.6"/>
		<rect x="-929.4" y="25.6" style="fill:#F2F2F2;" width="25.6" height="25.6"/>
		<rect x="-955" y="25.6" style="fill:#E6E6E6;" width="25.6" height="25.6"/>
		<rect x="-903.8" y="25.6" style="fill:#E6E6E6;" width="25.6" height="25.6"/>
		<rect x="-878.2" y="25.6" style="fill:#F2F2F2;" width="25.6" height="25.6"/>
		<rect x="-852.6" y="25.6" style="fill:#E6E6E6;" width="25.6" height="25.6"/>
		<rect x="-827" y="25.6" style="fill:#F2F2F2;" width="25.6" height="25.6"/>
		<rect x="-801.4" y="25.6" style="fill:#E6E6E6;" width="25.6" height="25.6"/>
		<rect x="-775.8" y="25.6" style="fill:#F2F2F2;" width="25.6" height="25.6"/>
		<rect x="-750.2" y="25.6" style="fill:#E6E6E6;" width="25.6" height="25.6"/>
		<rect x="-724.6" y="25.6" style="fill:#F2F2F2;" width="25.6" height="25.6"/>
		<rect x="-699" y="25.6" style="fill:#E6E6E6;" width="25.6" height="25.6"/>
		<rect x="-673.4" y="25.6" style="fill:#F2F2F2;" width="25.6" height="25.6"/>
		<rect x="-647.8" y="25.6" style="fill:#E6E6E6;" width="25.6" height="25.6"/>
		<rect x="-622.2" y="25.6" style="fill:#F2F2F2;" width="25.6" height="25.6"/>
		<rect x="-596.6" y="25.6" style="fill:#E6E6E6;" width="25.6" height="25.6"/>
		<rect x="-571" y="25.6" style="fill:#F2F2F2;" width="25.6" height="25.6"/>
		<rect x="-545.4" y="25.6" style="fill:#E6E6E6;" width="25.6" height="25.6"/>
		<rect x="-519.8" y="25.6" style="fill:#F2F2F2;" width="25.6" height="25.6"/>
		<rect x="-494.2" y="25.6" style="fill:#E6E6E6;" width="25.6" height="25.6"/>
		<rect x="-468.6" y="25.6" style="fill:#F2F2F2;" width="25.6" height="25.6"/>
		<rect x="-955" y="51.2" style="fill:#F2F2F2;" width="25.6" height="25.6"/>
		<rect x="-929.4" y="51.2" style="fill:#E6E6E6;" width="25.6" height="25.6"/>
		<rect x="-903.8" y="51.2" style="fill:#F2F2F2;" width="25.6" height="25.6"/>
		<rect x="-878.2" y="51.2" style="fill:#E6E6E6;" width="25.6" height="25.6"/>
		<rect x="-852.6" y="51.2" style="fill:#F2F2F2;" width="25.6" height="25.6"/>
		<rect x="-827" y="51.2" style="fill:#E6E6E6;" width="25.6" height="25.6"/>
		<rect x="-801.4" y="51.2" style="fill:#F2F2F2;" width="25.6" height="25.6"/>
		<rect x="-775.8" y="51.2" style="fill:#E6E6E6;" width="25.6" height="25.6"/>
		<rect x="-750.2" y="51.2" style="fill:#F2F2F2;" width="25.6" height="25.6"/>
		<rect x="-724.6" y="51.2" style="fill:#E6E6E6;" width="25.6" height="25.6"/>
		<rect x="-699" y="51.2" style="fill:#F2F2F2;" width="25.6" height="25.6"/>
		<rect x="-673.4" y="51.2" style="fill:#E6E6E6;" width="25.6" height="25.6"/>
		<rect x="-647.8" y="51.2" style="fill:#F2F2F2;" width="25.6" height="25.6"/>
		<rect x="-622.2" y="51.2" style="fill:#E6E6E6;" width="25.6" height="25.6"/>
		<rect x="-596.6" y="51.2" style="fill:#F2F2F2;" width="25.6" height="25.6"/>
		<rect x="-571" y="51.2" style="fill:#E6E6E6;" width="25.6" height="25.6"/>
		<rect x="-545.4" y="51.2" style="fill:#F2F2F2;" width="25.6" height="25.6"/>
		<rect x="-519.8" y="51.2" style="fill:#E6E6E6;" width="25.6" height="25.6"/>
		<rect x="-494.2" y="51.2" style="fill:#F2F2F2;" width="25.6" height="25.6"/>
		<rect x="-468.6" y="51.2" style="fill:#E6E6E6;" width="25.6" height="25.6"/>
		<rect x="-929.4" y="76.8" style="fill:#F2F2F2;" width="25.6" height="25.6"/>
		<rect x="-955" y="76.8" style="fill:#E6E6E6;" width="25.6" height="25.6"/>
		<rect x="-903.8" y="76.8" style="fill:#E6E6E6;" width="25.6" height="25.6"/>
		<rect x="-878.2" y="76.8" style="fill:#F2F2F2;" width="25.6" height="25.6"/>
		<rect x="-852.6" y="76.8" style="fill:#E6E6E6;" width="25.6" height="25.6"/>
		<rect x="-827" y="76.8" style="fill:#F2F2F2;" width="25.6" height="25.6"/>
		<rect x="-801.4" y="76.8" style="fill:#E6E6E6;" width="25.6" height="25.6"/>
		<rect x="-775.8" y="76.8" style="fill:#F2F2F2;" width="25.6" height="25.6"/>
		<rect x="-750.2" y="76.8" style="fill:#E6E6E6;" width="25.6" height="25.6"/>
		<rect x="-724.6" y="76.8" style="fill:#F2F2F2;" width="25.6" height="25.6"/>
		<rect x="-699" y="76.8" style="fill:#E6E6E6;" width="25.6" height="25.6"/>
		<rect x="-673.4" y="76.8" style="fill:#F2F2F2;" width="25.6" height="25.6"/>
		<rect x="-647.8" y="76.8" style="fill:#E6E6E6;" width="25.6" height="25.6"/>
		<rect x="-622.2" y="76.8" style="fill:#F2F2F2;" width="25.6" height="25.6"/>
		<rect x="-596.6" y="76.8" style="fill:#E6E6E6;" width="25.6" height="25.6"/>
		<rect x="-571" y="76.8" style="fill:#F2F2F2;" width="25.6" height="25.6"/>
		<rect x="-545.4" y="76.8" style="fill:#E6E6E6;" width="25.6" height="25.6"/>
		<rect x="-519.8" y="76.8" style="fill:#F2F2F2;" width="25.6" height="25.6"/>
		<rect x="-494.2" y="76.8" style="fill:#E6E6E6;" width="25.6" height="25.6"/>
		<rect x="-468.6" y="76.8" style="fill:#F2F2F2;" width="25.6" height="25.6"/>
		<rect x="-955" y="102.4" style="fill:#F2F2F2;" width="25.6" height="25.6"/>
		<rect x="-929.4" y="102.4" style="fill:#E6E6E6;" width="25.6" height="25.6"/>
		<rect x="-903.8" y="102.4" style="fill:#F2F2F2;" width="25.6" height="25.6"/>
		<rect x="-878.2" y="102.4" style="fill:#E6E6E6;" width="25.6" height="25.6"/>
		<rect x="-852.6" y="102.4" style="fill:#F2F2F2;" width="25.6" height="25.6"/>
		<rect x="-827" y="102.4" style="fill:#E6E6E6;" width="25.6" height="25.6"/>
		<rect x="-801.4" y="102.4" style="fill:#F2F2F2;" width="25.6" height="25.6"/>
		<rect x="-775.8" y="102.4" style="fill:#E6E6E6;" width="25.6" height="25.6"/>
		<rect x="-750.2" y="102.4" style="fill:#F2F2F2;" width="25.6" height="25.6"/>
		<rect x="-724.6" y="102.4" style="fill:#E6E6E6;" width="25.6" height="25.6"/>
		<rect x="-699" y="102.4" style="fill:#F2F2F2;" width="25.6" height="25.6"/>
		<rect x="-673.4" y="102.4" style="fill:#E6E6E6;" width="25.6" height="25.6"/>
		<rect x="-647.8" y="102.4" style="fill:#F2F2F2;" width="25.6" height="25.6"/>
		<rect x="-622.2" y="102.4" style="fill:#E6E6E6;" width="25.6" height="25.6"/>
		<rect x="-596.6" y="102.4" style="fill:#F2F2F2;" width="25.6" height="25.6"/>
		<rect x="-571" y="102.4" style="fill:#E6E6E6;" width="25.6" height="25.6"/>
		<rect x="-545.4" y="102.4" style="fill:#F2F2F2;" width="25.6" height="25.6"/>
		<rect x="-519.8" y="102.4" style="fill:#E6E6E6;" width="25.6" height="25.6"/>
		<rect x="-494.2" y="102.4" style="fill:#F2F2F2;" width="25.6" height="25.6"/>
		<rect x="-468.6" y="102.4" style="fill:#E6E6E6;" width="25.6" height="25.6"/>
		<rect x="-929.4" y="128" style="fill:#F2F2F2;" width="25.6" height="25.6"/>
		<rect x="-955" y="128" style="fill:#E6E6E6;" width="25.6" height="25.6"/>
		<rect x="-903.8" y="128" style="fill:#E6E6E6;" width="25.6" height="25.6"/>
		<rect x="-878.2" y="128" style="fill:#F2F2F2;" width="25.6" height="25.6"/>
		<rect x="-852.6" y="128" style="fill:#E6E6E6;" width="25.6" height="25.6"/>
		<rect x="-827" y="128" style="fill:#F2F2F2;" width="25.6" height="25.6"/>
		<rect x="-801.4" y="128" style="fill:#E6E6E6;" width="25.6" height="25.6"/>
		<rect x="-775.8" y="128" style="fill:#F2F2F2;" width="25.6" height="25.6"/>
		<rect x="-750.2" y="128" style="fill:#E6E6E6;" width="25.6" height="25.6"/>
		<rect x="-724.6" y="128" style="fill:#F2F2F2;" width="25.6" height="25.6"/>
		<rect x="-699" y="128" style="fill:#E6E6E6;" width="25.6" height="25.6"/>
		<rect x="-673.4" y="128" style="fill:#F2F2F2;" width="25.6" height="25.6"/>
		<rect x="-647.8" y="128" style="fill:#E6E6E6;" width="25.6" height="25.6"/>
		<rect x="-622.2" y="128" style="fill:#F2F2F2;" width="25.6" height="25.6"/>
		<rect x="-596.6" y="128" style="fill:#E6E6E6;" width="25.6" height="25.6"/>
		<rect x="-571" y="128" style="fill:#F2F2F2;" width="25.6" height="25.6"/>
		<rect x="-545.4" y="128" style="fill:#E6E6E6;" width="25.6" height="25.6"/>
		<rect x="-519.8" y="128" style="fill:#F2F2F2;" width="25.6" height="25.6"/>
		<rect x="-494.2" y="128" style="fill:#E6E6E6;" width="25.6" height="25.6"/>
		<rect x="-468.6" y="128" style="fill:#F2F2F2;" width="25.6" height="25.6"/>
		<rect x="-955" y="153.6" style="fill:#F2F2F2;" width="25.6" height="25.6"/>
		<rect x="-929.4" y="153.6" style="fill:#E6E6E6;" width="25.6" height="25.6"/>
		<rect x="-903.8" y="153.6" style="fill:#F2F2F2;" width="25.6" height="25.6"/>
		<rect x="-878.2" y="153.6" style="fill:#E6E6E6;" width="25.6" height="25.6"/>
		<rect x="-852.6" y="153.6" style="fill:#F2F2F2;" width="25.6" height="25.6"/>
		<rect x="-827" y="153.6" style="fill:#E6E6E6;" width="25.6" height="25.6"/>
		<rect x="-801.4" y="153.6" style="fill:#F2F2F2;" width="25.6" height="25.6"/>
		<rect x="-775.8" y="153.6" style="fill:#E6E6E6;" width="25.6" height="25.6"/>
		<rect x="-750.2" y="153.6" style="fill:#F2F2F2;" width="25.6" height="25.6"/>
		<rect x="-724.6" y="153.6" style="fill:#E6E6E6;" width="25.6" height="25.6"/>
		<rect x="-699" y="153.6" style="fill:#F2F2F2;" width="25.6" height="25.6"/>
		<rect x="-673.4" y="153.6" style="fill:#E6E6E6;" width="25.6" height="25.6"/>
		<rect x="-647.8" y="153.6" style="fill:#F2F2F2;" width="25.6" height="25.6"/>
		<rect x="-622.2" y="153.6" style="fill:#E6E6E6;" width="25.6" height="25.6"/>
		<rect x="-596.6" y="153.6" style="fill:#F2F2F2;" width="25.6" height="25.6"/>
		<rect x="-571" y="153.6" style="fill:#E6E6E6;" width="25.6" height="25.6"/>
		<rect x="-545.4" y="153.6" style="fill:#F2F2F2;" width="25.6" height="25.6"/>
		<rect x="-519.8" y="153.6" style="fill:#E6E6E6;" width="25.6" height="25.6"/>
		<rect x="-494.2" y="153.6" style="fill:#F2F2F2;" width="25.6" height="25.6"/>
		<rect x="-468.6" y="153.6" style="fill:#E6E6E6;" width="25.6" height="25.6"/>
		<rect x="-929.4" y="179.2" style="fill:#F2F2F2;" width="25.6" height="25.6"/>
		<rect x="-955" y="179.2" style="fill:#E6E6E6;" width="25.6" height="25.6"/>
		<rect x="-903.8" y="179.2" style="fill:#E6E6E6;" width="25.6" height="25.6"/>
		<rect x="-878.2" y="179.2" style="fill:#F2F2F2;" width="25.6" height="25.6"/>
		<rect x="-852.6" y="179.2" style="fill:#E6E6E6;" width="25.6" height="25.6"/>
		<rect x="-827" y="179.2" style="fill:#F2F2F2;" width="25.6" height="25.6"/>
		<rect x="-801.4" y="179.2" style="fill:#E6E6E6;" width="25.6" height="25.6"/>
		<rect x="-775.8" y="179.2" style="fill:#F2F2F2;" width="25.6" height="25.6"/>
		<rect x="-750.2" y="179.2" style="fill:#E6E6E6;" width="25.6" height="25.6"/>
		<rect x="-724.6" y="179.2" style="fill:#F2F2F2;" width="25.6" height="25.6"/>
		<rect x="-699" y="179.2" style="fill:#E6E6E6;" width="25.6" height="25.6"/>
		<rect x="-673.4" y="179.2" style="fill:#F2F2F2;" width="25.6" height="25.6"/>
		<rect x="-647.8" y="179.2" style="fill:#E6E6E6;" width="25.6" height="25.6"/>
		<rect x="-622.2" y="179.2" style="fill:#F2F2F2;" width="25.6" height="25.6"/>
		<rect x="-596.6" y="179.2" style="fill:#E6E6E6;" width="25.6" height="25.6"/>
		<rect x="-571" y="179.2" style="fill:#F2F2F2;" width="25.6" height="25.6"/>
		<rect x="-545.4" y="179.2" style="fill:#E6E6E6;" width="25.6" height="25.6"/>
		<rect x="-519.8" y="179.2" style="fill:#F2F2F2;" width="25.6" height="25.6"/>
		<rect x="-494.2" y="179.2" style="fill:#E6E6E6;" width="25.6" height="25.6"/>
		<rect x="-468.6" y="179.2" style="fill:#F2F2F2;" width="25.6" height="25.6"/>
		<rect x="-955" y="204.8" style="fill:#F2F2F2;" width="25.6" height="25.6"/>
		<rect x="-929.4" y="204.8" style="fill:#E6E6E6;" width="25.6" height="25.6"/>
		<rect x="-903.8" y="204.8" style="fill:#F2F2F2;" width="25.6" height="25.6"/>
		<rect x="-878.2" y="204.8" style="fill:#E6E6E6;" width="25.6" height="25.6"/>
		<rect x="-852.6" y="204.8" style="fill:#F2F2F2;" width="25.6" height="25.6"/>
		<rect x="-827" y="204.8" style="fill:#E6E6E6;" width="25.6" height="25.6"/>
		<rect x="-801.4" y="204.8" style="fill:#F2F2F2;" width="25.6" height="25.6"/>
		<rect x="-775.8" y="204.8" style="fill:#E6E6E6;" width="25.6" height="25.6"/>
		<rect x="-750.2" y="204.8" style="fill:#F2F2F2;" width="25.6" height="25.6"/>
		<rect x="-724.6" y="204.8" style="fill:#E6E6E6;" width="25.6" height="25.6"/>
		<rect x="-699" y="204.8" style="fill:#F2F2F2;" width="25.6" height="25.6"/>
		<rect x="-673.4" y="204.8" style="fill:#E6E6E6;" width="25.6" height="25.6"/>
		<rect x="-647.8" y="204.8" style="fill:#F2F2F2;" width="25.6" height="25.6"/>
		<rect x="-622.2" y="204.8" style="fill:#E6E6E6;" width="25.6" height="25.6"/>
		<rect x="-596.6" y="204.8" style="fill:#F2F2F2;" width="25.6" height="25.6"/>
		<rect x="-571" y="204.8" style="fill:#E6E6E6;" width="25.6" height="25.6"/>
		<rect x="-545.4" y="204.8" style="fill:#F2F2F2;" width="25.6" height="25.6"/>
		<rect x="-519.8" y="204.8" style="fill:#E6E6E6;" width="25.6" height="25.6"/>
		<rect x="-494.2" y="204.8" style="fill:#F2F2F2;" width="25.6" height="25.6"/>
		<rect x="-468.6" y="204.8" style="fill:#E6E6E6;" width="25.6" height="25.6"/>
		<rect x="-929.4" y="230.4" style="fill:#F2F2F2;" width="25.6" height="25.6"/>
		<rect x="-955" y="230.4" style="fill:#E6E6E6;" width="25.6" height="25.6"/>
		<rect x="-903.8" y="230.4" style="fill:#E6E6E6;" width="25.6" height="25.6"/>
		<rect x="-878.2" y="230.4" style="fill:#F2F2F2;" width="25.6" height="25.6"/>
		<rect x="-852.6" y="230.4" style="fill:#E6E6E6;" width="25.6" height="25.6"/>
		<rect x="-827" y="230.4" style="fill:#F2F2F2;" width="25.6" height="25.6"/>
		<rect x="-801.4" y="230.4" style="fill:#E6E6E6;" width="25.6" height="25.6"/>
		<rect x="-775.8" y="230.4" style="fill:#F2F2F2;" width="25.6" height="25.6"/>
		<rect x="-750.2" y="230.4" style="fill:#E6E6E6;" width="25.6" height="25.6"/>
		<rect x="-724.6" y="230.4" style="fill:#F2F2F2;" width="25.6" height="25.6"/>
		<rect x="-699" y="230.4" style="fill:#E6E6E6;" width="25.6" height="25.6"/>
		<rect x="-673.4" y="230.4" style="fill:#F2F2F2;" width="25.6" height="25.6"/>
		<rect x="-647.8" y="230.4" style="fill:#E6E6E6;" width="25.6" height="25.6"/>
		<rect x="-622.2" y="230.4" style="fill:#F2F2F2;" width="25.6" height="25.6"/>
		<rect x="-596.6" y="230.4" style="fill:#E6E6E6;" width="25.6" height="25.6"/>
		<rect x="-571" y="230.4" style="fill:#F2F2F2;" width="25.6" height="25.6"/>
		<rect x="-545.4" y="230.4" style="fill:#E6E6E6;" width="25.6" height="25.6"/>
		<rect x="-519.8" y="230.4" style="fill:#F2F2F2;" width="25.6" height="25.6"/>
		<rect x="-494.2" y="230.4" style="fill:#E6E6E6;" width="25.6" height="25.6"/>
		<rect x="-468.6" y="230.4" style="fill:#F2F2F2;" width="25.6" height="25.6"/>
		<rect x="-955" y="256" style="fill:#F2F2F2;" width="25.6" height="25.6"/>
		<rect x="-929.4" y="256" style="fill:#E6E6E6;" width="25.6" height="25.6"/>
		<rect x="-903.8" y="256" style="fill:#F2F2F2;" width="25.6" height="25.6"/>
		<rect x="-878.2" y="256" style="fill:#E6E6E6;" width="25.6" height="25.6"/>
		<rect x="-852.6" y="256" style="fill:#F2F2F2;" width="25.6" height="25.6"/>
		<rect x="-827" y="256" style="fill:#E6E6E6;" width="25.6" height="25.6"/>
		<rect x="-801.4" y="256" style="fill:#F2F2F2;" width="25.6" height="25.6"/>
		<rect x="-775.8" y="256" style="fill:#E6E6E6;" width="25.6" height="25.6"/>
		<rect x="-750.2" y="256" style="fill:#F2F2F2;" width="25.6" height="25.6"/>
		<rect x="-724.6" y="256" style="fill:#E6E6E6;" width="25.6" height="25.6"/>
		<rect x="-699" y="256" style="fill:#F2F2F2;" width="25.6" height="25.6"/>
		<rect x="-673.4" y="256" style="fill:#E6E6E6;" width="25.6" height="25.6"/>
		<rect x="-647.8" y="256" style="fill:#F2F2F2;" width="25.6" height="25.6"/>
		<rect x="-622.2" y="256" style="fill:#E6E6E6;" width="25.6" height="25.6"/>
		<rect x="-596.6" y="256" style="fill:#F2F2F2;" width="25.6" height="25.6"/>
		<rect x="-571" y="256" style="fill:#E6E6E6;" width="25.6" height="25.6"/>
		<rect x="-545.4" y="256" style="fill:#F2F2F2;" width="25.6" height="25.6"/>
		<rect x="-519.8" y="256" style="fill:#E6E6E6;" width="25.6" height="25.6"/>
		<rect x="-494.2" y="256" style="fill:#F2F2F2;" width="25.6" height="25.6"/>
		<rect x="-468.6" y="256" style="fill:#E6E6E6;" width="25.6" height="25.6"/>
		<rect x="-929.4" y="281.6" style="fill:#F2F2F2;" width="25.6" height="25.6"/>
		<rect x="-955" y="281.6" style="fill:#E6E6E6;" width="25.6" height="25.6"/>
		<rect x="-903.8" y="281.6" style="fill:#E6E6E6;" width="25.6" height="25.6"/>
		<rect x="-878.2" y="281.6" style="fill:#F2F2F2;" width="25.6" height="25.6"/>
		<rect x="-852.6" y="281.6" style="fill:#E6E6E6;" width="25.6" height="25.6"/>
		<rect x="-827" y="281.6" style="fill:#F2F2F2;" width="25.6" height="25.6"/>
		<rect x="-801.4" y="281.6" style="fill:#E6E6E6;" width="25.6" height="25.6"/>
		<rect x="-775.8" y="281.6" style="fill:#F2F2F2;" width="25.6" height="25.6"/>
		<rect x="-750.2" y="281.6" style="fill:#E6E6E6;" width="25.6" height="25.6"/>
		<rect x="-724.6" y="281.6" style="fill:#F2F2F2;" width="25.6" height="25.6"/>
		<rect x="-699" y="281.6" style="fill:#E6E6E6;" width="25.6" height="25.6"/>
		<rect x="-673.4" y="281.6" style="fill:#F2F2F2;" width="25.6" height="25.6"/>
		<rect x="-647.8" y="281.6" style="fill:#E6E6E6;" width="25.6" height="25.6"/>
		<rect x="-622.2" y="281.6" style="fill:#F2F2F2;" width="25.6" height="25.6"/>
		<rect x="-596.6" y="281.6" style="fill:#E6E6E6;" width="25.6" height="25.6"/>
		<rect x="-571" y="281.6" style="fill:#F2F2F2;" width="25.6" height="25.6"/>
		<rect x="-545.4" y="281.6" style="fill:#E6E6E6;" width="25.6" height="25.6"/>
		<rect x="-519.8" y="281.6" style="fill:#F2F2F2;" width="25.6" height="25.6"/>
		<rect x="-494.2" y="281.6" style="fill:#E6E6E6;" width="25.6" height="25.6"/>
		<rect x="-468.6" y="281.6" style="fill:#F2F2F2;" width="25.6" height="25.6"/>
		<rect x="-955" y="307.2" style="fill:#F2F2F2;" width="25.6" height="25.6"/>
		<rect x="-929.4" y="307.2" style="fill:#E6E6E6;" width="25.6" height="25.6"/>
		<rect x="-903.8" y="307.2" style="fill:#F2F2F2;" width="25.6" height="25.6"/>
		<rect x="-878.2" y="307.2" style="fill:#E6E6E6;" width="25.6" height="25.6"/>
		<rect x="-852.6" y="307.2" style="fill:#F2F2F2;" width="25.6" height="25.6"/>
		<rect x="-827" y="307.2" style="fill:#E6E6E6;" width="25.6" height="25.6"/>
		<rect x="-801.4" y="307.2" style="fill:#F2F2F2;" width="25.6" height="25.6"/>
		<rect x="-775.8" y="307.2" style="fill:#E6E6E6;" width="25.6" height="25.6"/>
		<rect x="-750.2" y="307.2" style="fill:#F2F2F2;" width="25.6" height="25.6"/>
		<rect x="-724.6" y="307.2" style="fill:#E6E6E6;" width="25.6" height="25.6"/>
		<rect x="-699" y="307.2" style="fill:#F2F2F2;" width="25.6" height="25.6"/>
		<rect x="-673.4" y="307.2" style="fill:#E6E6E6;" width="25.6" height="25.6"/>
		<rect x="-647.8" y="307.2" style="fill:#F2F2F2;" width="25.6" height="25.6"/>
		<rect x="-622.2" y="307.2" style="fill:#E6E6E6;" width="25.6" height="25.6"/>
		<rect x="-596.6" y="307.2" style="fill:#F2F2F2;" width="25.6" height="25.6"/>
		<rect x="-571" y="307.2" style="fill:#E6E6E6;" width="25.6" height="25.6"/>
		<rect x="-545.4" y="307.2" style="fill:#F2F2F2;" width="25.6" height="25.6"/>
		<rect x="-519.8" y="307.2" style="fill:#E6E6E6;" width="25.6" height="25.6"/>
		<rect x="-494.2" y="307.2" style="fill:#F2F2F2;" width="25.6" height="25.6"/>
		<rect x="-468.6" y="307.2" style="fill:#E6E6E6;" width="25.6" height="25.6"/>
		<rect x="-929.4" y="332.8" style="fill:#F2F2F2;" width="25.6" height="25.6"/>
		<rect x="-955" y="332.8" style="fill:#E6E6E6;" width="25.6" height="25.6"/>
		<rect x="-903.8" y="332.8" style="fill:#E6E6E6;" width="25.6" height="25.6"/>
		<rect x="-878.2" y="332.8" style="fill:#F2F2F2;" width="25.6" height="25.6"/>
		<rect x="-852.6" y="332.8" style="fill:#E6E6E6;" width="25.6" height="25.6"/>
		<rect x="-827" y="332.8" style="fill:#F2F2F2;" width="25.6" height="25.6"/>
		<rect x="-801.4" y="332.8" style="fill:#E6E6E6;" width="25.6" height="25.6"/>
		<rect x="-775.8" y="332.8" style="fill:#F2F2F2;" width="25.6" height="25.6"/>
		<rect x="-750.2" y="332.8" style="fill:#E6E6E6;" width="25.6" height="25.6"/>
		<rect x="-724.6" y="332.8" style="fill:#F2F2F2;" width="25.6" height="25.6"/>
		<rect x="-699" y="332.8" style="fill:#E6E6E6;" width="25.6" height="25.6"/>
		<rect x="-673.4" y="332.8" style="fill:#F2F2F2;" width="25.6" height="25.6"/>
		<rect x="-647.8" y="332.8" style="fill:#E6E6E6;" width="25.6" height="25.6"/>
		<rect x="-622.2" y="332.8" style="fill:#F2F2F2;" width="25.6" height="25.6"/>
		<rect x="-596.6" y="332.8" style="fill:#E6E6E6;" width="25.6" height="25.6"/>
		<rect x="-571" y="332.8" style="fill:#F2F2F2;" width="25.6" height="25.6"/>
		<rect x="-545.4" y="332.8" style="fill:#E6E6E6;" width="25.6" height="25.6"/>
		<rect x="-519.8" y="332.8" style="fill:#F2F2F2;" width="25.6" height="25.6"/>
		<rect x="-494.2" y="332.8" style="fill:#E6E6E6;" width="25.6" height="25.6"/>
		<rect x="-468.6" y="332.8" style="fill:#F2F2F2;" width="25.6" height="25.6"/>
		<rect x="-955" y="358.4" style="fill:#F2F2F2;" width="25.6" height="25.6"/>
		<rect x="-929.4" y="358.4" style="fill:#E6E6E6;" width="25.6" height="25.6"/>
		<rect x="-903.8" y="358.4" style="fill:#F2F2F2;" width="25.6" height="25.6"/>
		<rect x="-878.2" y="358.4" style="fill:#E6E6E6;" width="25.6" height="25.6"/>
		<rect x="-852.6" y="358.4" style="fill:#F2F2F2;" width="25.6" height="25.6"/>
		<rect x="-827" y="358.4" style="fill:#E6E6E6;" width="25.6" height="25.6"/>
		<rect x="-801.4" y="358.4" style="fill:#F2F2F2;" width="25.6" height="25.6"/>
		<rect x="-775.8" y="358.4" style="fill:#E6E6E6;" width="25.6" height="25.6"/>
		<rect x="-750.2" y="358.4" style="fill:#F2F2F2;" width="25.6" height="25.6"/>
		<rect x="-724.6" y="358.4" style="fill:#E6E6E6;" width="25.6" height="25.6"/>
		<rect x="-699" y="358.4" style="fill:#F2F2F2;" width="25.6" height="25.6"/>
		<rect x="-673.4" y="358.4" style="fill:#E6E6E6;" width="25.6" height="25.6"/>
		<rect x="-647.8" y="358.4" style="fill:#F2F2F2;" width="25.6" height="25.6"/>
		<rect x="-622.2" y="358.4" style="fill:#E6E6E6;" width="25.6" height="25.6"/>
		<rect x="-596.6" y="358.4" style="fill:#F2F2F2;" width="25.6" height="25.6"/>
		<rect x="-571" y="358.4" style="fill:#E6E6E6;" width="25.6" height="25.6"/>
		<rect x="-545.4" y="358.4" style="fill:#F2F2F2;" width="25.6" height="25.6"/>
		<rect x="-519.8" y="358.4" style="fill:#E6E6E6;" width="25.6" height="25.6"/>
		<rect x="-494.2" y="358.4" style="fill:#F2F2F2;" width="25.6" height="25.6"/>
		<rect x="-468.6" y="358.4" style="fill:#E6E6E6;" width="25.6" height="25.6"/>
		<rect x="-929.4" y="384" style="fill:#F2F2F2;" width="25.6" height="25.6"/>
		<rect x="-955" y="384" style="fill:#E6E6E6;" width="25.6" height="25.6"/>
		<rect x="-903.8" y="384" style="fill:#E6E6E6;" width="25.6" height="25.6"/>
		<rect x="-878.2" y="384" style="fill:#F2F2F2;" width="25.6" height="25.6"/>
		<rect x="-852.6" y="384" style="fill:#E6E6E6;" width="25.6" height="25.6"/>
		<rect x="-827" y="384" style="fill:#F2F2F2;" width="25.6" height="25.6"/>
		<rect x="-801.4" y="384" style="fill:#E6E6E6;" width="25.6" height="25.6"/>
		<rect x="-775.8" y="384" style="fill:#F2F2F2;" width="25.6" height="25.6"/>
		<rect x="-750.2" y="384" style="fill:#E6E6E6;" width="25.6" height="25.6"/>
		<rect x="-724.6" y="384" style="fill:#F2F2F2;" width="25.6" height="25.6"/>
		<rect x="-699" y="384" style="fill:#E6E6E6;" width="25.6" height="25.6"/>
		<rect x="-673.4" y="384" style="fill:#F2F2F2;" width="25.6" height="25.6"/>
		<rect x="-647.8" y="384" style="fill:#E6E6E6;" width="25.6" height="25.6"/>
		<rect x="-622.2" y="384" style="fill:#F2F2F2;" width="25.6" height="25.6"/>
		<rect x="-596.6" y="384" style="fill:#E6E6E6;" width="25.6" height="25.6"/>
		<rect x="-571" y="384" style="fill:#F2F2F2;" width="25.6" height="25.6"/>
		<rect x="-545.4" y="384" style="fill:#E6E6E6;" width="25.6" height="25.6"/>
		<rect x="-519.8" y="384" style="fill:#F2F2F2;" width="25.6" height="25.6"/>
		<rect x="-494.2" y="384" style="fill:#E6E6E6;" width="25.6" height="25.6"/>
		<rect x="-468.6" y="384" style="fill:#F2F2F2;" width="25.6" height="25.6"/>
		<rect x="-955" y="409.6" style="fill:#F2F2F2;" width="25.6" height="25.6"/>
		<rect x="-929.4" y="409.6" style="fill:#E6E6E6;" width="25.6" height="25.6"/>
		<rect x="-903.8" y="409.6" style="fill:#F2F2F2;" width="25.6" height="25.6"/>
		<rect x="-878.2" y="409.6" style="fill:#E6E6E6;" width="25.6" height="25.6"/>
		<rect x="-852.6" y="409.6" style="fill:#F2F2F2;" width="25.6" height="25.6"/>
		<rect x="-827" y="409.6" style="fill:#E6E6E6;" width="25.6" height="25.6"/>
		<rect x="-801.4" y="409.6" style="fill:#F2F2F2;" width="25.6" height="25.6"/>
		<rect x="-775.8" y="409.6" style="fill:#E6E6E6;" width="25.6" height="25.6"/>
		<rect x="-750.2" y="409.6" style="fill:#F2F2F2;" width="25.6" height="25.6"/>
		<rect x="-724.6" y="409.6" style="fill:#E6E6E6;" width="25.6" height="25.6"/>
		<rect x="-699" y="409.6" style="fill:#F2F2F2;" width="25.6" height="25.6"/>
		<rect x="-673.4" y="409.6" style="fill:#E6E6E6;" width="25.6" height="25.6"/>
		<rect x="-647.8" y="409.6" style="fill:#F2F2F2;" width="25.6" height="25.6"/>
		<rect x="-622.2" y="409.6" style="fill:#E6E6E6;" width="25.6" height="25.6"/>
		<rect x="-596.6" y="409.6" style="fill:#F2F2F2;" width="25.6" height="25.6"/>
		<rect x="-571" y="409.6" style="fill:#E6E6E6;" width="25.6" height="25.6"/>
		<rect x="-545.4" y="409.6" style="fill:#F2F2F2;" width="25.6" height="25.6"/>
		<rect x="-519.8" y="409.6" style="fill:#E6E6E6;" width="25.6" height="25.6"/>
		<rect x="-494.2" y="409.6" style="fill:#F2F2F2;" width="25.6" height="25.6"/>
		<rect x="-468.6" y="409.6" style="fill:#E6E6E6;" width="25.6" height="25.6"/>
		<rect x="-929.4" y="435.2" style="fill:#F2F2F2;" width="25.6" height="25.6"/>
		<rect x="-955" y="435.2" style="fill:#E6E6E6;" width="25.6" height="25.6"/>
		<rect x="-903.8" y="435.2" style="fill:#E6E6E6;" width="25.6" height="25.6"/>
		<rect x="-878.2" y="435.2" style="fill:#F2F2F2;" width="25.6" height="25.6"/>
		<rect x="-852.6" y="435.2" style="fill:#E6E6E6;" width="25.6" height="25.6"/>
		<rect x="-827" y="435.2" style="fill:#F2F2F2;" width="25.6" height="25.6"/>
		<rect x="-801.4" y="435.2" style="fill:#E6E6E6;" width="25.6" height="25.6"/>
		<rect x="-775.8" y="435.2" style="fill:#F2F2F2;" width="25.6" height="25.6"/>
		<rect x="-750.2" y="435.2" style="fill:#E6E6E6;" width="25.6" height="25.6"/>
		<rect x="-724.6" y="435.2" style="fill:#F2F2F2;" width="25.6" height="25.6"/>
		<rect x="-699" y="435.2" style="fill:#E6E6E6;" width="25.6" height="25.6"/>
		<rect x="-673.4" y="435.2" style="fill:#F2F2F2;" width="25.6" height="25.6"/>
		<rect x="-647.8" y="435.2" style="fill:#E6E6E6;" width="25.6" height="25.6"/>
		<rect x="-622.2" y="435.2" style="fill:#F2F2F2;" width="25.6" height="25.6"/>
		<rect x="-596.6" y="435.2" style="fill:#E6E6E6;" width="25.6" height="25.6"/>
		<rect x="-571" y="435.2" style="fill:#F2F2F2;" width="25.6" height="25.6"/>
		<rect x="-545.4" y="435.2" style="fill:#E6E6E6;" width="25.6" height="25.6"/>
		<rect x="-519.8" y="435.2" style="fill:#F2F2F2;" width="25.6" height="25.6"/>
		<rect x="-494.2" y="435.2" style="fill:#E6E6E6;" width="25.6" height="25.6"/>
		<rect x="-468.6" y="435.2" style="fill:#F2F2F2;" width="25.6" height="25.6"/>
		<rect x="-955" y="460.8" style="fill:#F2F2F2;" width="25.6" height="25.6"/>
		<rect x="-929.4" y="460.8" style="fill:#E6E6E6;" width="25.6" height="25.6"/>
		<rect x="-903.8" y="460.8" style="fill:#F2F2F2;" width="25.6" height="25.6"/>
		<rect x="-878.2" y="460.8" style="fill:#E6E6E6;" width="25.6" height="25.6"/>
		<rect x="-852.6" y="460.8" style="fill:#F2F2F2;" width="25.6" height="25.6"/>
		<rect x="-827" y="460.8" style="fill:#E6E6E6;" width="25.6" height="25.6"/>
		<rect x="-801.4" y="460.8" style="fill:#F2F2F2;" width="25.6" height="25.6"/>
		<rect x="-775.8" y="460.8" style="fill:#E6E6E6;" width="25.6" height="25.6"/>
		<rect x="-750.2" y="460.8" style="fill:#F2F2F2;" width="25.6" height="25.6"/>
		<rect x="-724.6" y="460.8" style="fill:#E6E6E6;" width="25.6" height="25.6"/>
		<rect x="-699" y="460.8" style="fill:#F2F2F2;" width="25.6" height="25.6"/>
		<rect x="-673.4" y="460.8" style="fill:#E6E6E6;" width="25.6" height="25.6"/>
		<rect x="-647.8" y="460.8" style="fill:#F2F2F2;" width="25.6" height="25.6"/>
		<rect x="-622.2" y="460.8" style="fill:#E6E6E6;" width="25.6" height="25.6"/>
		<rect x="-596.6" y="460.8" style="fill:#F2F2F2;" width="25.6" height="25.6"/>
		<rect x="-571" y="460.8" style="fill:#E6E6E6;" width="25.6" height="25.6"/>
		<rect x="-545.4" y="460.8" style="fill:#F2F2F2;" width="25.6" height="25.6"/>
		<rect x="-519.8" y="460.8" style="fill:#E6E6E6;" width="25.6" height="25.6"/>
		<rect x="-494.2" y="460.8" style="fill:#F2F2F2;" width="25.6" height="25.6"/>
		<rect x="-468.6" y="460.8" style="fill:#E6E6E6;" width="25.6" height="25.6"/>
		<rect x="-929.4" y="486.4" style="fill:#F2F2F2;" width="25.6" height="25.6"/>
		<rect x="-955" y="486.4" style="fill:#E6E6E6;" width="25.6" height="25.6"/>
		<rect x="-903.8" y="486.4" style="fill:#E6E6E6;" width="25.6" height="25.6"/>
		<rect x="-878.2" y="486.4" style="fill:#F2F2F2;" width="25.6" height="25.6"/>
		<rect x="-852.6" y="486.4" style="fill:#E6E6E6;" width="25.6" height="25.6"/>
		<rect x="-827" y="486.4" style="fill:#F2F2F2;" width="25.6" height="25.6"/>
		<rect x="-801.4" y="486.4" style="fill:#E6E6E6;" width="25.6" height="25.6"/>
		<rect x="-775.8" y="486.4" style="fill:#F2F2F2;" width="25.6" height="25.6"/>
		<rect x="-750.2" y="486.4" style="fill:#E6E6E6;" width="25.6" height="25.6"/>
		<rect x="-724.6" y="486.4" style="fill:#F2F2F2;" width="25.6" height="25.6"/>
		<rect x="-699" y="486.4" style="fill:#E6E6E6;" width="25.6" height="25.6"/>
		<rect x="-673.4" y="486.4" style="fill:#F2F2F2;" width="25.6" height="25.6"/>
		<rect x="-647.8" y="486.4" style="fill:#E6E6E6;" width="25.6" height="25.6"/>
		<rect x="-622.2" y="486.4" style="fill:#F2F2F2;" width="25.6" height="25.6"/>
		<rect x="-596.6" y="486.4" style="fill:#E6E6E6;" width="25.6" height="25.6"/>
		<rect x="-571" y="486.4" style="fill:#F2F2F2;" width="25.6" height="25.6"/>
		<rect x="-545.4" y="486.4" style="fill:#E6E6E6;" width="25.6" height="25.6"/>
		<rect x="-519.8" y="486.4" style="fill:#F2F2F2;" width="25.6" height="25.6"/>
		<rect x="-494.2" y="486.4" style="fill:#E6E6E6;" width="25.6" height="25.6"/>
		<rect x="-468.6" y="486.4" style="fill:#F2F2F2;" width="25.6" height="25.6"/>
	</g>
	
		<image style="overflow:visible;" width="1250" height="498" xlink:href="../animals_pixel_art_base_1.png - paint.net 4.0.6.jpg"  transform="matrix(1.8552 0 0 1.8552 -205.8073 -1323.3146)">
	</image>
</g>
<g id="Layer_1">
</g>
</svg>
